<svg xmlns="http://www.w3.org/2000/svg" width="9" height="12" viewBox="0 0 9 12">
  <metadata><?xpacket begin="﻿" id="W5M0MpCehiHzreSzNTczkc9d"?>
<x:xmpmeta xmlns:x="adobe:ns:meta/" x:xmptk="Adobe XMP Core 5.6-c142 79.160924, 2017/07/13-01:06:39        ">
   <rdf:RDF xmlns:rdf="http://www.w3.org/1999/02/22-rdf-syntax-ns#">
      <rdf:Description rdf:about=""/>
   </rdf:RDF>
</x:xmpmeta>
                                                                                                    
                                                                                                    
                                                                                                    
                                                                                                    
                                                                                                    
                                                                                                    
                                                                                                    
                                                                                                    
                                                                                                    
                                                                                                    
                                                                                                    
                                                                                                    
                                                                                                    
                                                                                                    
                                                                                                    
                                                                                                    
                                                                                                    
                                                                                                    
                                                                                                    
                                                                                                    
                           
<?xpacket end="w"?></metadata>
<defs>
    <style>
      .cls-1 {
        fill: #f6f2e7;
        fill-rule: evenodd;
      }
    </style>
  </defs>
  <path id="Forma_1" data-name="Forma 1" class="cls-1" d="M1249.47,3525.51h-0.74v-1a3.5,3.5,0,0,0-7,0v1h-0.75a0.248,0.248,0,0,0-.25.25V3532a1,1,0,0,0,1,1h7a0.994,0.994,0,0,0,.99-1v-6.24A0.248,0.248,0,0,0,1249.47,3525.51Zm-3.49,5.22a0.264,0.264,0,0,1-.07.19,0.234,0.234,0,0,1-.18.08h-1a0.273,0.273,0,0,1-.19-0.08,0.256,0.256,0,0,1-.06-0.19l0.16-1.42a0.981,0.981,0,0,1-.41-0.8,1,1,0,1,1,1.59.8Zm1.25-5.22h-4v-1a2,2,0,0,1,4,0v1Z" transform="translate(-1240.72 -3521)"/>
</svg>
