<svg xmlns="http://www.w3.org/2000/svg" width="23" height="18" viewBox="0 0 23 18">
  <metadata><?xpacket begin="﻿" id="W5M0MpCehiHzreSzNTczkc9d"?>
<x:xmpmeta xmlns:x="adobe:ns:meta/" x:xmptk="Adobe XMP Core 5.6-c142 79.160924, 2017/07/13-01:06:39        ">
   <rdf:RDF xmlns:rdf="http://www.w3.org/1999/02/22-rdf-syntax-ns#">
      <rdf:Description rdf:about=""/>
   </rdf:RDF>
</x:xmpmeta>
                                                                                                    
                                                                                                    
                                                                                                    
                                                                                                    
                                                                                                    
                                                                                                    
                                                                                                    
                                                                                                    
                                                                                                    
                                                                                                    
                                                                                                    
                                                                                                    
                                                                                                    
                                                                                                    
                                                                                                    
                                                                                                    
                                                                                                    
                                                                                                    
                                                                                                    
                                                                                                    
                           
<?xpacket end="w"?></metadata>
<defs>
    <style>
      .cls-1 {
        fill: #fff;
        fill-rule: evenodd;
      }
    </style>
  </defs>
  <path id="Forma_1" data-name="Forma 1" class="cls-1" d="M893.4,6698.17l3.54,7.28a0.347,0.347,0,0,1-.336.54H874.394a0.347,0.347,0,0,1-.336-0.54l3.541-7.28a0.4,0.4,0,0,1,.336-0.21h3.036a0.427,0.427,0,0,1,.281.13c0.206,0.24.416,0.47,0.625,0.7s0.4,0.44.6,0.67h-3.6a0.4,0.4,0,0,0-.336.21l-2.346,4.82h18.624l-2.345-4.82a0.4,0.4,0,0,0-.336-0.21H888.52c0.2-.23.4-0.45,0.6-0.67s0.421-.46.627-0.7a0.43,0.43,0,0,1,.281-0.13h3.042A0.4,0.4,0,0,1,893.4,6698.17Zm-2.7-4.97c0,3.97-3.309,4.72-4.865,8.54a0.372,0.372,0,0,1-.69,0c-1.4-3.45-4.232-4.39-4.773-7.46a5.325,5.325,0,0,1,4.611-6.27A5.213,5.213,0,0,1,890.707,6693.2Zm-2.458,0a2.752,2.752,0,1,0-2.752,2.75A2.759,2.759,0,0,0,888.249,6693.2Z" transform="translate(-874 -6688)"/>
</svg>
