<svg xmlns="http://www.w3.org/2000/svg" width="14.75" height="26" viewBox="0 0 14.75 26">
  <metadata><?xpacket begin="﻿" id="W5M0MpCehiHzreSzNTczkc9d"?>
<x:xmpmeta xmlns:x="adobe:ns:meta/" x:xmptk="Adobe XMP Core 5.6-c142 79.160924, 2017/07/13-01:06:39        ">
   <rdf:RDF xmlns:rdf="http://www.w3.org/1999/02/22-rdf-syntax-ns#">
      <rdf:Description rdf:about=""/>
   </rdf:RDF>
</x:xmpmeta>
                                                                                                    
                                                                                                    
                                                                                                    
                                                                                                    
                                                                                                    
                                                                                                    
                                                                                                    
                                                                                                    
                                                                                                    
                                                                                                    
                                                                                                    
                                                                                                    
                                                                                                    
                                                                                                    
                                                                                                    
                                                                                                    
                                                                                                    
                                                                                                    
                                                                                                    
                                                                                                    
                           
<?xpacket end="w"?></metadata>
<defs>
    <style>
      .cls-1 {
        fill: #ffffff;
        fill-rule: evenodd;
      }
    </style>
  </defs>
  <path id="Forma_1" data-name="Forma 1" class="cls-1" d="M1339.97,27h-10.94a1.888,1.888,0,0,0-1.89,1.894V51.109A1.888,1.888,0,0,0,1329.03,53h10.94a1.888,1.888,0,0,0,1.89-1.893V28.892A1.888,1.888,0,0,0,1339.97,27Zm-8.17,1.15h5.4a0.542,0.542,0,0,1,0,.913h-5.4A0.542,0.542,0,0,1,1331.8,28.148Zm2.7,22.984a1.208,1.208,0,1,1,1.21-1.209A1.209,1.209,0,0,1,1334.5,51.132Zm5.94-4.14h-11.88v-16.8h11.88v16.8Z" transform="translate(-1327.13 -27)"/>
</svg>
