<svg id="s" xmlns="http://www.w3.org/2000/svg" width="34" height="34" viewBox="0 0 34 34">
  <metadata><?xpacket begin="﻿" id="W5M0MpCehiHzreSzNTczkc9d"?>
<x:xmpmeta xmlns:x="adobe:ns:meta/" x:xmptk="Adobe XMP Core 5.6-c142 79.160924, 2017/07/13-01:06:39        ">
   <rdf:RDF xmlns:rdf="http://www.w3.org/1999/02/22-rdf-syntax-ns#">
      <rdf:Description rdf:about=""/>
   </rdf:RDF>
</x:xmpmeta>
                                                                                                    
                                                                                                    
                                                                                                    
                                                                                                    
                                                                                                    
                                                                                                    
                                                                                                    
                                                                                                    
                                                                                                    
                                                                                                    
                                                                                                    
                                                                                                    
                                                                                                    
                                                                                                    
                                                                                                    
                                                                                                    
                                                                                                    
                                                                                                    
                                                                                                    
                                                                                                    
                           
<?xpacket end="w"?></metadata>
<defs>
    <style>
      .cls-1 {
        fill: #fff;
      }

      .cls-2 {
        fill: #8d6a41;
        fill-rule: evenodd;
      }
    </style>
  </defs>
  <rect id="Прямоугольник_28_копия_4" data-name="Прямоугольник 28 копия 4" class="cls-1" width="34" height="34" rx="4" ry="4"/>
  <path id="Forma_1" data-name="Forma 1" class="cls-2" d="M1519.05,6664.83c-3.84,0-6.95,2.59-6.95,5.79a5.48,5.48,0,0,0,2.65,4.53l-0.91,1.83,2.49-1.07a7.744,7.744,0,0,0,1.69.42,4.836,4.836,0,0,1-.13-1.08c0-3.2,3.11-5.79,6.94-5.79a8.616,8.616,0,0,1,1.03.07C1525.25,6666.85,1522.43,6664.83,1519.05,6664.83Zm-2.32,4.34a0.87,0.87,0,1,1,.87-0.87A0.871,0.871,0,0,1,1516.73,6669.17Zm4.63,0a0.87,0.87,0,1,1,.87-0.87A0.871,0.871,0,0,1,1521.36,6669.17Zm9.26,6.08c0-2.56-2.59-4.63-5.79-4.63s-5.78,2.07-5.78,4.63,2.59,4.62,5.78,4.62a6.714,6.714,0,0,0,1.51-.18l3.12,1.34-1.08-2.16A4.344,4.344,0,0,0,1530.62,6675.25Zm-7.52-.29a0.87,0.87,0,1,1,.86-0.87A0.871,0.871,0,0,1,1523.1,6674.96Zm3.47,0a0.87,0.87,0,1,1,.87-0.87A0.871,0.871,0,0,1,1526.57,6674.96Z" transform="translate(-1504 -6655)"/>
</svg>
