<svg id="wk" xmlns="http://www.w3.org/2000/svg" width="34" height="34" viewBox="0 0 34 34">
  <metadata><?xpacket begin="﻿" id="W5M0MpCehiHzreSzNTczkc9d"?>
<x:xmpmeta xmlns:x="adobe:ns:meta/" x:xmptk="Adobe XMP Core 5.6-c142 79.160924, 2017/07/13-01:06:39        ">
   <rdf:RDF xmlns:rdf="http://www.w3.org/1999/02/22-rdf-syntax-ns#">
      <rdf:Description rdf:about=""/>
   </rdf:RDF>
</x:xmpmeta>
                                                                                                    
                                                                                                    
                                                                                                    
                                                                                                    
                                                                                                    
                                                                                                    
                                                                                                    
                                                                                                    
                                                                                                    
                                                                                                    
                                                                                                    
                                                                                                    
                                                                                                    
                                                                                                    
                                                                                                    
                                                                                                    
                                                                                                    
                                                                                                    
                                                                                                    
                                                                                                    
                           
<?xpacket end="w"?></metadata>
<defs>
    <style>
      .cls-1 {
        fill: #fff;
      }

      .cls-2 {
        fill: #8d6a41;
        fill-rule: evenodd;
      }
    </style>
  </defs>
  <rect id="Прямоугольник_28_копия_3" data-name="Прямоугольник 28 копия 3" class="cls-1" width="34" height="34" rx="4" ry="4"/>
  <path id="Forma_1" data-name="Forma 1" class="cls-2" d="M1449.48,6672.31c0.32-.4.56-0.72,0.75-0.96,1.32-1.73,1.89-2.83,1.71-3.31l-0.07-.12a0.642,0.642,0,0,0-.35-0.18,1.7,1.7,0,0,0-.73-0.03l-3.3.02a0.906,0.906,0,0,0-.23.01,0.959,0.959,0,0,0-.15.03,0.219,0.219,0,0,0-.05.03l-0.05.03a0.679,0.679,0,0,0-.12.12,0.666,0.666,0,0,0-.12.2,19.906,19.906,0,0,1-1.22,2.54c-0.29.46-.54,0.87-0.78,1.21a6.027,6.027,0,0,1-.6.75,3.522,3.522,0,0,1-.43.39,0.455,0.455,0,0,1-.3.13c-0.07-.02-0.13-0.03-0.19-0.05a0.746,0.746,0,0,1-.26-0.27,1.138,1.138,0,0,1-.13-0.44,4.529,4.529,0,0,1-.04-0.46c-0.01-.13,0-0.31,0-0.54s0.02-.39.02-0.48c0-.28,0-0.59.01-0.93s0.02-.6.03-0.79,0.01-.4.01-0.62a2.272,2.272,0,0,0-.04-0.51,1.234,1.234,0,0,0-.12-0.37,0.667,0.667,0,0,0-.23-0.27,1.588,1.588,0,0,0-.39-0.15,7.221,7.221,0,0,0-1.54-.14,7.445,7.445,0,0,0-2.74.27,1.5,1.5,0,0,0-.43.33c-0.14.17-.16,0.26-0.06,0.28a1.348,1.348,0,0,1,.97.48l0.07,0.14a1.693,1.693,0,0,1,.16.51,5.056,5.056,0,0,1,.11.83,10.976,10.976,0,0,1,0,1.41c-0.04.39-.08,0.69-0.11,0.91a1.964,1.964,0,0,1-.16.53c-0.07.13-.11,0.22-0.13,0.25a0.179,0.179,0,0,1-.06.05,0.815,0.815,0,0,1-.31.06,0.688,0.688,0,0,1-.39-0.16,2.584,2.584,0,0,1-.47-0.43,5.983,5.983,0,0,1-.56-0.77c-0.2-.33-0.42-0.73-0.64-1.18l-0.18-.32c-0.12-.21-0.27-0.52-0.47-0.92s-0.38-.79-0.53-1.17a0.72,0.72,0,0,0-.27-0.36l-0.06-.03a0.72,0.72,0,0,0-.18-0.1,1.19,1.19,0,0,0-.27-0.07l-3.13.02a0.8,0.8,0,0,0-.65.21l-0.05.07a0.418,0.418,0,0,0-.03.18,1.042,1.042,0,0,0,.06.31q0.69,1.59,1.5,3.06c0.54,0.99,1,1.78,1.4,2.38s0.8,1.17,1.21,1.7,0.69,0.88.82,1.03,0.24,0.26.32,0.34l0.28,0.27a6.094,6.094,0,0,0,.81.65,12.681,12.681,0,0,0,1.18.74,6.431,6.431,0,0,0,1.5.6,5.4,5.4,0,0,0,1.67.19h1.32a0.927,0.927,0,0,0,.6-0.25l0.05-.06a0.717,0.717,0,0,0,.09-0.21,1.374,1.374,0,0,0,.04-0.31,3.411,3.411,0,0,1,.07-0.87,2.1,2.1,0,0,1,.2-0.59,1.4,1.4,0,0,1,.24-0.33,0.884,0.884,0,0,1,.2-0.16,0.18,0.18,0,0,1,.09-0.04,0.7,0.7,0,0,1,.64.17,3.928,3.928,0,0,1,.7.66c0.22,0.26.48,0.55,0.79,0.87a5.3,5.3,0,0,0,.8.72l0.23,0.14a2.568,2.568,0,0,0,.59.24,1.23,1.23,0,0,0,.64.06l2.93-.04a1.294,1.294,0,0,0,.68-0.15,0.515,0.515,0,0,0,.28-0.31,0.955,0.955,0,0,0,.01-0.38,2.827,2.827,0,0,0-.08-0.3c-0.03-.05-0.05-0.1-0.08-0.14a11.606,11.606,0,0,0-2.18-2.49l-0.02-.02-0.02-.01-0.01-.01h-0.01a12.637,12.637,0,0,1-.93-0.93,0.864,0.864,0,0,1-.16-0.91A8.347,8.347,0,0,1,1449.48,6672.31Z" transform="translate(-1425 -6655)"/>
</svg>
