<svg id="t" xmlns="http://www.w3.org/2000/svg" width="34" height="34" viewBox="0 0 34 34">
  <metadata><?xpacket begin="﻿" id="W5M0MpCehiHzreSzNTczkc9d"?>
<x:xmpmeta xmlns:x="adobe:ns:meta/" x:xmptk="Adobe XMP Core 5.6-c142 79.160924, 2017/07/13-01:06:39        ">
   <rdf:RDF xmlns:rdf="http://www.w3.org/1999/02/22-rdf-syntax-ns#">
      <rdf:Description rdf:about=""/>
   </rdf:RDF>
</x:xmpmeta>
                                                                                                    
                                                                                                    
                                                                                                    
                                                                                                    
                                                                                                    
                                                                                                    
                                                                                                    
                                                                                                    
                                                                                                    
                                                                                                    
                                                                                                    
                                                                                                    
                                                                                                    
                                                                                                    
                                                                                                    
                                                                                                    
                                                                                                    
                                                                                                    
                                                                                                    
                                                                                                    
                           
<?xpacket end="w"?></metadata>
<defs>
    <style>
      .cls-1 {
        fill: #fff;
      }

      .cls-2 {
        fill: #8d6a41;
        fill-rule: evenodd;
      }
    </style>
  </defs>
  <rect id="Прямоугольник_28_копия_2" data-name="Прямоугольник 28 копия 2" class="cls-1" width="34" height="34" rx="4" ry="4"/>
  <path id="Forma_1" data-name="Forma 1" class="cls-2" d="M1410.26,6666.31a6.788,6.788,0,0,1-2.18.85,3.376,3.376,0,0,0-2.5-1.11,3.481,3.481,0,0,0-3.43,3.52,3.568,3.568,0,0,0,.09.8,9.668,9.668,0,0,1-7.07-3.68,3.57,3.57,0,0,0,1.06,4.7,3.44,3.44,0,0,1-1.56-.44v0.04a3.518,3.518,0,0,0,2.76,3.46,3.443,3.443,0,0,1-.91.12,3.573,3.573,0,0,1-.65-0.06,3.453,3.453,0,0,0,3.21,2.44,6.726,6.726,0,0,1-4.26,1.51,7.368,7.368,0,0,1-.82-0.05,9.522,9.522,0,0,0,5.26,1.58c6.31,0,9.76-5.36,9.76-10.02l-0.01-.45a7.262,7.262,0,0,0,1.72-1.82,6.634,6.634,0,0,1-1.97.55A3.483,3.483,0,0,0,1410.26,6666.31Z" transform="translate(-1385 -6655)"/>
</svg>
