<svg id="phone" xmlns="http://www.w3.org/2000/svg" width="34" height="34" viewBox="0 0 34 34">
  <metadata><?xpacket begin="﻿" id="W5M0MpCehiHzreSzNTczkc9d"?>
<x:xmpmeta xmlns:x="adobe:ns:meta/" x:xmptk="Adobe XMP Core 5.6-c142 79.160924, 2017/07/13-01:06:39        ">
   <rdf:RDF xmlns:rdf="http://www.w3.org/1999/02/22-rdf-syntax-ns#">
      <rdf:Description rdf:about=""/>
   </rdf:RDF>
</x:xmpmeta>
                                                                                                    
                                                                                                    
                                                                                                    
                                                                                                    
                                                                                                    
                                                                                                    
                                                                                                    
                                                                                                    
                                                                                                    
                                                                                                    
                                                                                                    
                                                                                                    
                                                                                                    
                                                                                                    
                                                                                                    
                                                                                                    
                                                                                                    
                                                                                                    
                                                                                                    
                                                                                                    
                           
<?xpacket end="w"?></metadata>
<defs>
    <style>
      .cls-1 {
        fill: #fff;
      }

      .cls-2 {
        fill: #8d6a41;
        fill-rule: evenodd;
      }
    </style>
  </defs>
  <rect id="Прямоугольник_28" data-name="Прямоугольник 28" class="cls-1" width="34" height="34" rx="4" ry="4"/>
  <path id="Forma_1" data-name="Forma 1" class="cls-2" d="M1486.74,6666.26a7.778,7.778,0,0,0-12.31,9.25l-1.64,4.71,4.7-1.65A7.776,7.776,0,0,0,1486.74,6666.26Zm-1.65,8.39-0.9.9c-0.75.74-2.86-.16-4.71-2.02s-2.77-3.97-2.02-4.71l0.89-.9a0.477,0.477,0,0,1,.68,0l1.12,1.12a0.483,0.483,0,0,1,0,.67l-0.67.68a6.561,6.561,0,0,0,3.14,3.14l0.67-.67a0.465,0.465,0,0,1,.67,0l1.13,1.12A0.483,0.483,0,0,1,1485.09,6674.65Z" transform="translate(-1464 -6655)"/>
</svg>
