<svg id="F" xmlns="http://www.w3.org/2000/svg" width="34" height="34" viewBox="0 0 34 34">
  <metadata><?xpacket begin="﻿" id="W5M0MpCehiHzreSzNTczkc9d"?>
<x:xmpmeta xmlns:x="adobe:ns:meta/" x:xmptk="Adobe XMP Core 5.6-c142 79.160924, 2017/07/13-01:06:39        ">
   <rdf:RDF xmlns:rdf="http://www.w3.org/1999/02/22-rdf-syntax-ns#">
      <rdf:Description rdf:about=""/>
   </rdf:RDF>
</x:xmpmeta>
                                                                                                    
                                                                                                    
                                                                                                    
                                                                                                    
                                                                                                    
                                                                                                    
                                                                                                    
                                                                                                    
                                                                                                    
                                                                                                    
                                                                                                    
                                                                                                    
                                                                                                    
                                                                                                    
                                                                                                    
                                                                                                    
                                                                                                    
                                                                                                    
                                                                                                    
                                                                                                    
                           
<?xpacket end="w"?></metadata>
<defs>
    <style>
      .cls-1 {
        fill: #fff;
      }

      .cls-2 {
        fill: #8d6a41;
        fill-rule: evenodd;
      }
    </style>
  </defs>
  <rect id="Прямоугольник_28_копия" data-name="Прямоугольник 28 копия" class="cls-1" width="34" height="34" rx="4" ry="4"/>
  <path id="Forma_1" data-name="Forma 1" class="cls-2" d="M1365.69,6665h-1.92a3.391,3.391,0,0,0-3.54,3.69v1.7h-1.93a0.3,0.3,0,0,0-.3.31v2.47a0.3,0.3,0,0,0,.3.3h1.93v6.23a0.3,0.3,0,0,0,.3.31h2.51a0.3,0.3,0,0,0,.3-0.31v-6.23h2.26a0.3,0.3,0,0,0,.3-0.3v-2.47a0.31,0.31,0,0,0-.09-0.22,0.333,0.333,0,0,0-.21-0.09h-2.26v-1.44a0.872,0.872,0,0,1,1.06-1.05h1.29a0.3,0.3,0,0,0,.3-0.3v-2.3A0.308,0.308,0,0,0,1365.69,6665Z" transform="translate(-1345 -6655)"/>
</svg>
